<?xml version="1.0" standalone="no"?><!DOCTYPE svg PUBLIC "-//W3C//DTD SVG 1.1//EN" "http://www.w3.org/Graphics/SVG/1.1/DTD/svg11.dtd"><svg t="1667304377550" class="icon" viewBox="0 0 1024 1024" version="1.1" xmlns="http://www.w3.org/2000/svg" p-id="1175" xmlns:xlink="http://www.w3.org/1999/xlink" width="64" height="64"><path d="M910.3 851.7H173.6c-27.4 0-49.7-22.3-49.7-49.7V305.5c0-27.4 22.3-49.7 49.7-49.7h736.7c27.4 0 49.7 22.3 49.7 49.7V802c0 27.4-22.3 49.7-49.7 49.7z" fill="#A7B8C6" p-id="1176"></path><path d="M913.7 235.6c0-27.4-22.3-49.7-49.7-49.7H127.3c-27.4 0-49.7 22.3-49.7 49.7v326.8h836.1V235.6z" fill="#E7E2D3" p-id="1177"></path><path d="M127.3 781.7H864c27.4 0 49.7-22.3 49.7-49.7V481H77.5v251c0 27.4 22.3 49.7 49.8 49.7z" fill="#4C4B4C" p-id="1178"></path><path d="M864 795.3H127.3C92.4 795.3 64 766.9 64 732V235.6c0-34.9 28.4-63.3 63.3-63.3H864c34.9 0 63.3 28.4 63.3 63.3V732c-0.1 34.9-28.4 63.3-63.3 63.3zM127.3 199.4c-19.9 0-36.2 16.2-36.2 36.2V732c0 19.9 16.2 36.2 36.2 36.2H864c19.9 0 36.2-16.2 36.2-36.2V235.6c0-19.9-16.2-36.2-36.2-36.2H127.3z" fill="#3E3A39" p-id="1179"></path><path d="M495.6 459.9m-187.6 0a187.6 187.6 0 1 0 375.2 0 187.6 187.6 0 1 0-375.2 0Z" fill="#E7E2D3" p-id="1180"></path><path d="M495.6 655.1c-107.6 0-195.1-87.5-195.1-195.1S388 264.9 495.6 264.9 690.7 352.4 690.7 460c0 107.5-87.5 195.1-195.1 195.1z m0-375.2c-99.3 0-180.1 80.8-180.1 180.1s80.8 180 180.1 180 180.1-80.8 180.1-180.1-80.8-180-180.1-180z" fill="#595757" p-id="1181"></path><path d="M495.6 459.9m-159 0a159 159 0 1 0 318 0 159 159 0 1 0-318 0Z" fill="#666765" p-id="1182"></path><path d="M495.6 459.9m-97.8 0a97.8 97.8 0 1 0 195.6 0 97.8 97.8 0 1 0-195.6 0Z" fill="#95D4EB" p-id="1183"></path><path d="M495.6 563.7c-57.2 0-103.8-46.6-103.8-103.8s46.6-103.8 103.8-103.8c57.2 0 103.8 46.6 103.8 103.8s-46.6 103.8-103.8 103.8z m0-195.5c-50.6 0-91.7 41.2-91.7 91.7s41.2 91.7 91.7 91.7c50.6 0 91.7-41.2 91.7-91.7s-41.1-91.7-91.7-91.7z" fill="#595757" p-id="1184"></path><path d="M539.1 419.9m-26.7 0a26.7 26.7 0 1 0 53.4 0 26.7 26.7 0 1 0-53.4 0Z" fill="#FFFFFF" p-id="1185"></path><path d="M351.5 701h281.1c11.4 0 21.7 5.3 28.4 13.5 9-3.4 15.5-12.2 15.5-22.4 0-13.2-10.8-24-24-24H334.6c-13.2 0-24 10.8-24 24 0 9.4 5.5 17.5 13.3 21.5 6.8-7.7 16.6-12.6 27.6-12.6z" fill="#1A1A1A" p-id="1186"></path><path d="M669.1 737.2c0-8.6-3-16.4-8.1-22.6-2.6 1-5.5 1.6-8.5 1.6H334.6c-3.8 0-7.4-0.9-10.6-2.5-5.5 6.3-8.9 14.6-8.9 23.6L301 800.6c0 19.9 17.7 36.2 39.4 36.2h303.5c21.7 0 39.4-16.3 39.4-36.2l-14.2-63.4z" fill="#E7E2D3" p-id="1187"></path><path d="M652.5 716.1c3 0 5.8-0.6 8.5-1.6-6.7-8.2-16.9-13.5-28.4-13.5H351.5c-11 0-20.8 4.9-27.5 12.6 3.2 1.6 6.8 2.5 10.6 2.5h317.9z" fill="#717071" p-id="1188"></path><path d="M792.4 413.5m-33 0a33 33 0 1 0 66 0 33 33 0 1 0-66 0Z" fill="#717071" p-id="1189"></path><path d="M792.4 449.4c-19.8 0-36-16.1-36-36 0-19.8 16.1-36 36-36 19.8 0 36 16.1 36 36s-16.1 36-36 36z m0-65.9c-16.5 0-30 13.4-30 30 0 16.5 13.4 30 30 30s30-13.4 30-30-13.5-30-30-30z" fill="#595757" p-id="1190"></path><path d="M800.193895 406.233563a12.4 9.3 55.105 1 0 15.255753-10.640582 12.4 9.3 55.105 1 0-15.255753 10.640582Z" fill="#B4B4B5" p-id="1191"></path><path d="M173.4 413.5m-33.1 0a33.1 33.1 0 1 0 66.2 0 33.1 33.1 0 1 0-66.2 0Z" fill="#DA8080" p-id="1192"></path><path d="M173.4 451.1c-20.8 0-37.7-16.9-37.7-37.7s16.9-37.7 37.7-37.7 37.7 16.9 37.7 37.7-16.9 37.7-37.7 37.7z m0-66.3c-15.8 0-28.6 12.8-28.6 28.6s12.8 28.6 28.6 28.6 28.6-12.8 28.6-28.6-12.8-28.6-28.6-28.6z" fill="#FFFFFF" p-id="1193"></path><path d="M212.6 336.3h-78.4c-2 0-3.6-1.6-3.6-3.6V285c0-2 1.6-3.6 3.6-3.6h78.4c2 0 3.6 1.6 3.6 3.6v47.7c0 2-1.6 3.6-3.6 3.6z" fill="#4C4B4C" p-id="1194"></path><path d="M822.5 336.3h-52.4c-1.7 0-3-1.4-3-3v-52.4c0-1.7 1.4-3 3-3h52.4c1.7 0 3 1.4 3 3v52.4c0 1.6-1.3 3-3 3z" fill="#656767" p-id="1195"></path><path d="M816.4 339.3h-40.2c-6.7 0-12.1-5.4-12.1-12.1V287c0-6.7 5.4-12.1 12.1-12.1h40.2c6.7 0 12.1 5.4 12.1 12.1v40.2c0.1 6.7-5.4 12.1-12.1 12.1z m-40.2-58.4c-3.4 0-6.1 2.7-6.1 6.1v40.2c0 3.4 2.7 6.1 6.1 6.1h40.2c3.4 0 6.1-2.7 6.1-6.1V287c0-3.4-2.7-6.1-6.1-6.1h-40.2z" fill="#3E3A39" p-id="1196"></path></svg>