<?xml version="1.0" standalone="no"?><!DOCTYPE svg PUBLIC "-//W3C//DTD SVG 1.1//EN" "http://www.w3.org/Graphics/SVG/1.1/DTD/svg11.dtd"><svg t="1667304390032" class="icon" viewBox="0 0 1024 1024" version="1.1" xmlns="http://www.w3.org/2000/svg" p-id="1349" xmlns:xlink="http://www.w3.org/1999/xlink" width="64" height="64"><path d="M910.4 843.8H174.6c-27.4 0-49.7-22.3-49.7-49.7V298.2c0-27.4 22.3-49.7 49.7-49.7h735.8c27.4 0 49.7 22.3 49.7 49.7v495.9c0 27.4-22.3 49.7-49.7 49.7z" fill="#A7B8C6" p-id="1350"></path><path d="M272.1 193.8H118.7c-22.8 0-41.2 18.5-41.2 41.2v512.7c0 22.8 18.5 41.2 41.2 41.2h752.7c22.8 0 41.2-18.5 41.2-41.2V235c0-22.8-18.5-41.2-41.2-41.2H272.1z" fill="#FFFFFF" p-id="1351"></path><path d="M871.4 802.5H118.7c-30.2 0-54.8-24.6-54.8-54.8V235c0-30.2 24.6-54.8 54.8-54.8h752.7c30.2 0 54.8 24.6 54.8 54.8v512.7c0 30.3-24.6 54.8-54.8 54.8zM118.7 207.3c-15.3 0-27.7 12.4-27.7 27.7v512.7c0 15.3 12.4 27.7 27.7 27.7h752.7c15.3 0 27.7-12.4 27.7-27.7V235c0-15.3-12.4-27.7-27.7-27.7H118.7z" fill="#3E3A39" p-id="1352"></path><path d="M302.8 246.7H170.5c-19.6 0-35.6 13.6-35.6 30.3v376.5c0 16.7 15.9 30.3 35.6 30.3h649.1c19.6 0 35.6-13.6 35.6-30.3V277c0-16.7-15.9-30.3-35.6-30.3H302.8z" fill="#95D4EB" p-id="1353"></path><path d="M430.8 683.8L230.3 483.3 135 578.6v105.2z" fill="#75BFAB" p-id="1354"></path><path d="M374.4 394.3m-98.8 0a98.8 98.8 0 1 0 197.6 0 98.8 98.8 0 1 0-197.6 0Z" fill="#F9F5B1" p-id="1355"></path><path d="M855.1 630L551.5 326.4 194.3 683.7h660.8z" fill="#57B79C" p-id="1356"></path><path d="M855.1 521.8l-83-83-245 245h328z" fill="#75BFAB" p-id="1357"></path><path d="M709.9 743.8h-33.1c-0.8 0-1.5-0.7-1.5-1.5v-33.1c0-0.8 0.7-1.5 1.5-1.5h33.1c0.8 0 1.5 0.7 1.5 1.5v33.1c0 0.9-0.7 1.5-1.5 1.5zM774.2 743.8h-33.1c-0.8 0-1.5-0.7-1.5-1.5v-33.1c0-0.8 0.7-1.5 1.5-1.5h33.1c0.8 0 1.5 0.7 1.5 1.5v33.1c0 0.9-0.6 1.5-1.5 1.5zM838.6 743.8h-33.1c-0.8 0-1.5-0.7-1.5-1.5v-33.1c0-0.8 0.7-1.5 1.5-1.5h33.1c0.8 0 1.5 0.7 1.5 1.5v33.1c0 0.9-0.7 1.5-1.5 1.5z" fill="#3E3A39" p-id="1358"></path></svg>